# xmcd CD database file
#
# Track frame offsets:
#	150
#	15495
#	32599
#	48655
#	62918
#	76529
#	94871
#	115143
#	128783
#	143378
#	154746
#	167603
#	180140
#	197977
#	220890
#
# Disc length: 3153 seconds
#
# Revision: 1
# Processed by: cddbd v1.5.1PL0 Copyright (c) Steve Scherf et al.
# Submitted via: jetAudio 5
#
DISCID=b90c4f0f
DTITLE=Tony (TS) McPhee and Joanna Deacon - Blues At Ten
DYEAR=1900
DGENRE=
TTITLE0=Blues At ten
TTITLE1=Messin' My Mind
TTITLE2=I Won't Take Love
TTITLE3=Strange Place
TTITLE4=Young At Heart
TTITLE5=Oh Death
TTITLE6=Blues Is A Man
TTITLE7=Devillved
TTITLE8=PMT Blues
TTITLE9=Better Off With The Blues
TTITLE10=Lost Boys
TTITLE11=Don't You Feel My leg
TTITLE12=Single Lies And Family Ties
TTITLE13=Graveyard Blues
TTITLE14=Christmas Tree
EXTD=
EXTT0=
EXTT1=
EXTT2=
EXTT3=
EXTT4=
EXTT5=
EXTT6=
EXTT7=
EXTT8=
EXTT9=
EXTT10=
EXTT11=
EXTT12=
EXTT13=
EXTT14=
PLAYORDER=
